<?xml version="1.0" encoding="utf-8"?>
<!-- Generator: Adobe Illustrator 24.3.0, SVG Export Plug-In . SVG Version: 6.00 Build 0)  -->
<svg version="1.1" id="Layer_1" xmlns="http://www.w3.org/2000/svg" xmlns:xlink="http://www.w3.org/1999/xlink" x="0px" y="0px"
	 width="435px" height="50px" viewBox="0 0 435 50" style="enable-background:new 0 0 435 50;" xml:space="preserve">
<style type="text/css">
	.st0{fill:#05141F;}
</style>
<g>
	<g>
		<path class="st0" d="M122.1,25.4c0-6.8,4.4-12,11.8-12c2.9,0,5.6,1.1,7.2,2.3v4.7c-1.7-2.2-4.1-3.7-7.1-3.7
			c-4.1,0-7.4,3.3-7.4,8.6v0.6c0,4.9,2.8,8.6,6.8,8.6s6.4-3.1,6.5-6.9h-6.1v-3.4h10.3v2.8c0,5.8-3.6,10.8-10.6,10.8
			c-7,0-11.3-5-11.3-12V25.4z"/>
		<path class="st0" d="M147.8,37.4V13.7h4v23.8H147.8z"/>
		<path class="st0" d="M155.3,28.7c0-4.9,3.6-8.7,8.5-8.7s8.5,3.8,8.5,8.7v0.5c0,5-3.6,8.7-8.5,8.7s-8.5-3.8-8.5-8.7V28.7z
			 M159.5,29.2c0,3.1,1.5,5.6,4.3,5.6c2.9,0,4.3-2.5,4.3-5.6v-0.5c0-3-1.5-5.6-4.3-5.6c-2.8,0-4.3,2.5-4.3,5.6V29.2z"/>
		<path class="st0" d="M175.9,37.4V13.7h4v8.6c1.2-1.4,3-2.3,5.1-2.3c4.1,0,7.6,3.4,7.6,8.9s-3.5,8.9-7.6,8.9
			c-2.2,0-4.1-1.1-5.1-2.5l-0.2,2H175.9z M179.9,32.1c0.8,1.6,2.4,2.7,4.1,2.7c2.2,0,4.4-1.9,4.4-5.9s-2.4-5.9-4.4-5.9
			c-1.7,0-3.3,1-4.1,2.7V32.1z"/>
		<path class="st0" d="M196.1,29.4c1.3-1.5,3.5-2.1,6.1-2.5l3.6-0.6c-0.2-2.2-1.5-3.3-4.1-3.3c-1.9,0-3.9,1.1-5.2,2.9V22
			c1.1-0.9,3-2,6-2c4,0,7.3,2,7.3,7v10.4h-3.3l-0.4-2c-1.6,1.5-3.3,2.4-5.7,2.4c-3.4,0-5.4-2-5.4-5.2
			C195,31.3,195.4,30.2,196.1,29.4z M201.2,34.7c2.1,0,3.9-1.5,4.7-3.2v-2.4l-2,0.3c-3.1,0.5-3.8,1-4.3,1.5
			c-0.4,0.4-0.6,0.9-0.6,1.5C199,33.9,199.9,34.7,201.2,34.7z"/>
		<path class="st0" d="M214.2,37.4V13.7h4v23.8H214.2z"/>
		<path class="st0" d="M231.8,37.4V13.9h5.6l6.6,16.2l6.7-16.2h4.9v23.6h-4V20.3l-7,17.1h-1.8l-6.9-17v17H231.8z"/>
		<path class="st0" d="M259.2,28.6c0-5,3.2-8.6,8-8.6c5,0,7.8,3.4,7.8,8.8v1.6h-11.8c0.3,2.8,1.9,4.4,4.7,4.5c2.2,0,4.1-0.6,6-2.6
			v3.8c-1.5,1.1-3.7,1.8-6,1.8c-5.6,0-8.6-3.6-8.6-8.7V28.6z M270.9,27.3c0-2.7-1.5-4.3-3.9-4.3c-2,0-3.8,1.7-3.9,4.3H270.9z"/>
		<path class="st0" d="M285,20c2,0,3.9,0.9,5.1,2.3v-8.6h4v23.8h-3.8l-0.2-2c-1,1.4-2.9,2.5-5.1,2.5c-4.1,0-7.6-3.4-7.6-8.9
			S280.9,20,285,20z M285.9,34.8c1.7,0,3.3-1.1,4.1-2.7v-6.3c-0.8-1.7-2.4-2.7-4.1-2.7c-2.1,0-4.4,1.9-4.4,5.9
			S283.7,34.8,285.9,34.8z"/>
		<path class="st0" d="M298.7,17.9v-4.2h4v4.2H298.7z M298.7,37.4V20.5h4v16.9H298.7z"/>
		<path class="st0" d="M307.4,29.4c1.3-1.5,3.5-2.1,6.1-2.5l3.6-0.6c-0.2-2.2-1.5-3.3-4.1-3.3c-1.9,0-3.9,1.1-5.2,2.9V22
			c1.1-0.9,3-2,6-2c4,0,7.3,2,7.3,7v10.4h-3.3l-0.4-2c-1.6,1.5-3.3,2.4-5.7,2.4c-3.4,0-5.4-2-5.4-5.2
			C306.2,31.3,306.7,30.2,307.4,29.4z M312.4,34.7c2.1,0,3.9-1.5,4.7-3.2v-2.4l-2,0.3c-3.1,0.5-3.8,1-4.3,1.5
			c-0.4,0.4-0.6,0.9-0.6,1.5C310.2,33.9,311.1,34.7,312.4,34.7z"/>
		<path class="st0" d="M333.2,25.4c0-6.8,4.4-12,11.8-12c2.9,0,5.6,1.1,7.2,2.3v4.7c-1.7-2.2-4.1-3.7-7.1-3.7
			c-4.1,0-7.4,3.3-7.4,8.6v0.6c0,5.1,3.3,8.6,7.4,8.6c3,0,5.4-1.5,7.1-3.7v4.7c-1.6,1.2-4.4,2.3-7.2,2.3c-7.4,0-11.8-5.2-11.8-12
			V25.4z"/>
		<path class="st0" d="M355,28.6c0-5,3.2-8.6,8-8.6c5,0,7.8,3.4,7.8,8.8v1.6h-11.8c0.3,2.8,1.9,4.4,4.7,4.5c2.2,0,4.1-0.6,6-2.6v3.8
			c-1.5,1.1-3.7,1.8-6,1.8c-5.6,0-8.6-3.6-8.6-8.7V28.6z M366.8,27.3c0-2.7-1.5-4.3-3.9-4.3c-2,0-3.8,1.7-3.9,4.3H366.8z"/>
		<path class="st0" d="M374.3,37.4V20.5h3.8l0.2,2.4c1.1-1.4,2.9-2.9,5.4-2.9c3.7,0,6,2.2,6,6.3v11.1h-4V26.3c0-1.8-0.6-3.2-2.6-3.2
			c-2,0-4.1,1.8-4.7,4v10.3H374.3z"/>
		<path class="st0" d="M392.1,23.6v-3.1h3.7v-5.1h4v5.1h3.8v3.1h-3.8v13.9h-4V23.6H392.1z"/>
		<path class="st0" d="M405.1,28.6c0-5,3.2-8.6,8-8.6c5,0,7.8,3.4,7.8,8.8v1.6H409c0.3,2.8,1.9,4.4,4.7,4.5c2.2,0,4.1-0.6,6-2.6v3.8
			c-1.5,1.1-3.7,1.8-6,1.8c-5.6,0-8.6-3.6-8.6-8.7V28.6z M416.9,27.3c0-2.7-1.5-4.3-3.9-4.3c-2,0-3.8,1.7-3.9,4.3H416.9z"/>
		<path class="st0" d="M424.4,37.4V20.5h3.8l0.2,2.8c0.7-2,2.7-3.3,5.1-3.3c0.4,0,1,0.1,1.3,0.2v3.6c-0.4-0.2-0.9-0.2-1.5-0.2
			c-2.2,0-4.3,1.4-4.9,3.7v10.2H424.4z"/>
	</g>
	<path class="st0" d="M61.4,35.2c0,0.2,0.1,0.3,0.2,0.3c0.1,0,0.2,0,0.3-0.1l32.7-21.3c0.6-0.4,1.1-0.6,1.9-0.6l7.2,0
		c1.1,0,1.8,0.7,1.8,1.8v13.7c0,1.7-0.4,2.6-1.8,3.5l-8.7,5.2c-0.1,0.1-0.2,0.1-0.3,0.1c-0.1,0-0.2-0.1-0.2-0.4l0-16
		c0-0.2-0.1-0.3-0.2-0.3c-0.1,0-0.2,0-0.3,0.1L70.1,37c-0.7,0.4-1.2,0.6-1.8,0.6H52.4c-1.1,0-1.8-0.7-1.8-1.8V15.9
		c0-0.1-0.1-0.3-0.2-0.3c-0.1,0-0.2,0-0.3,0.1l-15.8,9.5c-0.2,0.1-0.2,0.2-0.2,0.2c0,0.1,0,0.1,0.1,0.2L45.5,37
		c0.2,0.2,0.3,0.3,0.3,0.4c0,0.1-0.2,0.2-0.4,0.2l-10.2,0c-0.8,0-1.4-0.1-1.8-0.6l-6.8-6.8c-0.1-0.1-0.1-0.1-0.2-0.1
		c-0.1,0-0.1,0-0.2,0.1L14.7,37c-0.7,0.4-1.2,0.6-1.8,0.6H2.3c-1.1,0-1.8-0.7-1.8-1.8V22.2c0-1.7,0.4-2.6,1.8-3.5l8.8-5.3
		c0.1-0.1,0.2-0.1,0.2-0.1c0.1,0,0.2,0.1,0.2,0.4l0,18c0,0.2,0.1,0.3,0.2,0.3c0.1,0,0.2,0,0.3-0.1l29.7-17.8c0.7-0.4,1.1-0.6,2-0.6
		l16,0c1.1,0,1.8,0.7,1.8,1.8L61.4,35.2z"/>
</g>
</svg>
