<svg xmlns="http://www.w3.org/2000/svg" viewBox="0 0 656.0445 125.6924"><g id="Layer_2" data-name="Layer 2"><g id="レイヤー_1" data-name="レイヤー 1"><path d="M47.5191,27.66,75.0733,46.6944A35.1419,35.1419,0,0,0,96.69,53.6631c15.23,0,29.0312-10.23,29.0312-10.23L62.8472,0s-6.86,7.5459-28.39,20.9619C11.854,35.0489,0,39.14,0,39.14L81.41,95.375,77.795,97.7491,50.649,78.9971A35.1362,35.1362,0,0,0,29.0313,72.03C13.8028,72.03,0,82.2578,0,82.2578l62.8741,43.4346s6.8613-7.5469,28.39-20.9619c22.6035-14.0869,34.4575-18.1777,34.4575-18.1777L43.9039,30.0352Z" style="fill:#df013a"/><path d="M208.6485,53.7412c-11.94-1.5459-22.5806-1.8486-22.8472-6.1933-.3628-5.4678,8.355-6.0342,11.1983-6.0342,4.7465,0,12.44,1.0889,14.2343,8.2393h30.5015c0-13.7432-13.0308-24.6123-44.6245-24.7012-35.1353-.0977-41.0869,15.4238-41.0869,24.2353,0,16.3223,12.6557,21.1456,40.09,24.0225,10.1816,1.0684,16.6621,1.0264,16.6621,6.1094,0,5.2051-7.7436,5.7461-10.998,5.7461-2.9756,0-11.439.0166-14.1958-8.55H154.44c1.4385,16.0478,11.5561,25.4541,47.2905,25.3545,33.6538-.0967,42.4624-13.7442,42.4624-24.1788C244.1929,67.68,237.2837,57.4043,208.6485,53.7412Z" style="fill:#003790"/><polygon points="343.941 45.717 384.253 45.717 342.535 84.686 342.535 100.221 427.257 100.221 427.257 81.608 385.105 81.608 427.394 42.733 427.394 27.185 343.941 27.185 343.941 45.717" style="fill:#003790"/><rect x="628.482" y="27.1846" width="27.5625" height="73.0361" style="fill:#003790"/><polygon points="586.716 27.185 557.392 52.348 557.392 27.185 529.802 27.185 529.802 100.221 557.392 100.221 557.392 74.33 584.615 100.221 621.712 100.221 581.369 62.781 623.027 27.185 586.716 27.185" style="fill:#003790"/><path d="M308.3833,57.8174V69.3243c0,8.9726-3.2568,14.9316-15.4638,14.9316s-15.4644-5.959-15.4644-14.9316v-42.14H251.0279V53.793c0,3.51.0737,15.291.14,21.8838.0962,9.3955,2.41,27.3291,41.7515,27.3291,39.34,0,41.6543-17.9336,41.75-27.3291.0664-6.5928.1406-18.374.1406-21.8838V27.1846H308.3833Z" style="fill:#003790"/><path d="M493.8863,57.8174V69.3243c0,8.9726-3.2559,14.9316-15.4649,14.9316-12.205,0-15.4629-5.959-15.4629-14.9316v-42.14H436.5308V53.793c0,3.51.0742,15.291.1406,21.8838.0977,9.3955,2.4121,27.3291,41.75,27.3291,39.3418,0,41.6543-17.9336,41.752-27.3291.0664-6.5928.1426-18.374.1426-21.8838V27.1846h-26.43Z" style="fill:#003790"/></g></g></svg>