<svg width="173" height="216" viewBox="0 0 173 216" xmlns="http://www.w3.org/2000/svg"><g id="Symbols" stroke="none" stroke-width="1" fill="none" fill-rule="evenodd"><g id="FOOTER" transform="translate(-100 -288)"><g id="Group-23" transform="translate(100 288)"><path id="Fill-1" fill="red" d="M0 216h173V0H0z"/><g id="Group-22" transform="translate(29 30)" fill="#FFF"><path d="M102.03 29.87c-.057-.673-.127-1.349-.194-2.023-.062-.505-.127-1.003-.19-1.506a2.186 2.186 0 00-.383-.89c-.32-.4-.644-.795-.977-1.185-.448-.525-.896-1.052-1.344-1.572a154.832 154.832 0 00-9.216-9.669 157.053 157.053 0 00-10.07-8.85 97.42 97.42 0 00-1.637-1.294 38.905 38.905 0 00-1.235-.94 2.424 2.424 0 00-.926-.37 81.153 81.153 0 00-1.57-.177c-.694-.07-1.396-.132-2.104-.194A167.554 167.554 0 0058.552.62c-4.551.007-9.102.203-13.634.58-.704.062-1.41.125-2.11.194-.521.055-1.043.113-1.567.177a2.417 2.417 0 00-.927.37 57.05 57.05 0 00-1.237.94c-.55.425-1.088.858-1.63 1.294a157.053 157.053 0 00-10.07 8.85 155.829 155.829 0 00-9.214 9.67c-.454.519-.905 1.046-1.345 1.57-.332.391-.662.787-.98 1.186a2.237 2.237 0 00-.384.89 44.815 44.815 0 00-.182 1.506c-.074.674-.142 1.35-.21 2.023-.39 4.36-.585 8.73-.598 13.097.013 4.369.208 8.74.599 13.095.067.673.135 1.35.209 2.025.054.505.11 1.003.182 1.505.06.318.193.624.383.89a93.49 93.49 0 002.326 2.76 155.74 155.74 0 009.214 9.663 155.117 155.117 0 0010.07 8.847c.542.435 1.08.868 1.63 1.298.409.318.822.629 1.237.934.28.19.595.312.927.372.524.064 1.046.121 1.568.177.7.067 1.405.135 2.11.194 4.531.378 9.082.575 13.633.575 4.546 0 9.097-.197 13.632-.575.708-.059 1.41-.127 2.105-.194a88.461 88.461 0 001.57-.177c.327-.06.647-.182.925-.372a37.61 37.61 0 001.235-.934 155.117 155.117 0 0011.707-10.145 154.744 154.744 0 009.216-9.663c.448-.522.896-1.043 1.344-1.572.333-.393.657-.79.977-1.188.196-.266.321-.572.383-.89.063-.502.128-1 .19-1.505.067-.675.137-1.352.194-2.025.394-4.355.603-8.726.606-13.095a146.981 146.981 0 00-.606-13.097M95.4 54.065c-.049.57-.107 1.143-.164 1.716-.053.428-.108.851-.161 1.275-.052.27-.159.528-.325.754-.27.337-.545.675-.83 1.008-.378.449-.758.889-1.137 1.331a131.226 131.226 0 01-7.81 8.19 131.7 131.7 0 01-9.922 8.597c-.343.272-.69.535-1.048.792a2.029 2.029 0 01-.783.317c-.437.054-.884.101-1.332.15-.588.056-1.183.115-1.782.164-3.846.32-7.702.486-11.554.489a140.53 140.53 0 01-11.554-.49c-.599-.048-1.196-.107-1.79-.163-.442-.049-.882-.096-1.328-.15a2.026 2.026 0 01-.785-.317c-.353-.257-.702-.52-1.048-.792-.466-.362-.922-.73-1.382-1.099a131.92 131.92 0 01-8.536-7.498 132.21 132.21 0 01-7.806-8.19 74.966 74.966 0 01-1.141-1.331c-.283-.333-.563-.67-.832-1.008a1.9 1.9 0 01-.324-.754c-.06-.424-.11-.847-.156-1.275a148.12 148.12 0 01-.175-1.716 126.855 126.855 0 01-.507-11.1c.01-3.7.174-7.404.507-11.099.055-.57.113-1.144.175-1.714.046-.43.096-.85.156-1.277a1.88 1.88 0 01.324-.753c.269-.34.55-.675.832-1.005.373-.446.756-.892 1.14-1.333 2.482-2.84 5.087-5.57 7.807-8.195a133.585 133.585 0 018.536-7.5c.46-.37.916-.736 1.382-1.098a58.31 58.31 0 011.048-.797c.237-.157.505-.264.785-.311a78.32 78.32 0 013.118-.316c3.841-.318 7.698-.485 11.554-.491 3.852.006 7.708.173 11.554.491.6.053 1.194.107 1.782.166.448.047.895.095 1.332.15.278.047.547.154.783.311.358.261.705.53 1.048.797.467.362.927.729 1.385 1.097a133.36 133.36 0 018.537 7.501 131.805 131.805 0 017.81 8.195c.379.441.76.887 1.138 1.333.284.33.558.665.829 1.005.166.225.273.481.325.753.053.427.108.847.161 1.277.057.57.115 1.144.163 1.714.335 3.695.512 7.398.514 11.099a123.827 123.827 0 01-.514 11.1" id="Fill-2"/><path d="M90.899 43.065c-.36-.03-3.608-.043-5.35-.058-2.286-.02-3.827 0-4.578-.006-.22-.001-.251-.009-.497-.001-.008.176-.009.263-.019.478-.007.16-.035.699-.062 1.407-.047 1.197-.097 2.885-.07 4.091.006.236.006.302.006.419.13.008 2.264.004 3.698.018.194.001.21.005.405.008-.006.1 0 .194.003.359 0 .176-.203 2.709-.326 3.445-.367.544-.595.84-1.345 1.672-.795.879-.94 1.098-3.43 3.605-2.586 2.609-7.476 6.842-9.233 8.293-.363.282-1.114.94-1.114.94s.027-.888-.005-1.322c.063-16.73.046-28.61-.016-47.055.029-.421-.02-.766 0-1.276.55.43.572.451.949.765 2.573 2.175 5.286 4.41 7.438 6.558 2.972 2.988 4.247 4.302 6.39 6.83.213.268.255.324.398.55.04.236.04.277.079.573.084.71.226 2.158.25 2.555.007.224.03.332.023.552.221.022.37 0 .59.016a218 218 0 004.285.018c.49-.003.975-.01 1.437-.018.246-.002.262.006.468-.002a5.045 5.045 0 000-.626c-.02-1.849-.226-3.633-.354-4.731a9.239 9.239 0 00-.12-.978c-.183-.251-.3-.365-.472-.572-2.694-3.215-4.92-5.647-7.897-8.527-6.593-6.308-10.103-8.704-10.103-8.704s-.284-.21-.492-.348c-.277-.052-.215-.037-.474-.076-2.78-.32-6.207-.52-9.587-.613-.452-.013-.583-.024-1.074-.005.022.549.007.564-.01.978.055 22.782-.074 39-.031 61.62v.69s.322.029.745.013c2.697 0 7.963-.294 9.31-.509.522-.084.803-.102 1.172-.21a3.74 3.74 0 00.645-.458c3.572-2.823 6.224-5.116 9.613-8.31 3.611-3.45 6.891-7.183 7.68-8.061.327-.365.552-.646.94-1.156.162-.608.124-.788.197-1.273.34-3.941.611-6.42.611-10.91-.012-.235-.007-.347-.024-.618-.325-.02-.469-.015-.65-.03" id="Fill-4"/><path d="M55.854 11.283c-.558.02-1.58-.013-3.46.095-1.974.114-3.125.232-3.592.275-.265.024-.426.024-.624.046-.079.177-.07.155-.152.378-2.86 7.15-6.571 17.062-9.653 24.431a22.58 22.58 0 00-.469 1.098s-.143-.234-.51-.98c-1.593-3.235-5.197-10.02-5.775-10.977-.171-.282-.472-.902-.472-.902s-.452.482-.751.75c-.635.564-2.955 3.217-3.419 3.83-.231.307-.308.394-.573.771-.108.427-.132.686-.214 1.157-.164.94-.56 5-.661 10.452.014 4.438.28 8.4.684 12.82.021.242.115 1.183.115 1.183s.504.68.608.802c2.225 2.601 3.844 4.46 5.376 6.02l1.316 1.338s-.065-.941-.09-1.426c-.028-.455-.058-.964-.093-1.518-.298-4.753-.895-12.769-1.06-16.935-.033-.53.062-3.018.062-3.018l6.401 12.855s.48-1.155.689-1.637c2.572-6.43 5.021-12.194 7.53-18.622.177-.404 1.084-2.823 1.084-2.823s.024 2.61 0 3.176c-.125 18.042-.07 28.369-.045 38.276l.003.912c0 .507-.01.57-.01.902.665.11.598.109.96.156 1.163.147 1.147.189 2.518.274 1.414.089 2.96.13 4.195.158.317-.013.49-.013.643-.023.01-.293.009-.43.009-.703-.104-23.1.163-62.003.163-62.003s.011-.209.003-.59a9.359 9.359 0 00-.736.002" id="Fill-6"/><path d="M.643 116.476c0-6.078 3.693-10.418 9.772-10.418 5.032 0 7.882 2.921 8.201 6.888H16c-.348-2.867-2.327-4.515-5.439-4.515h-.29c-4.16 0-7.008 2.92-7.008 8.045 0 5.121 2.849 8.045 7.038 8.045h.29c3.46 0 5.818-2.143 5.818-5.095v-.694h-5.964v-2.345h6.05c1.482 0 2.27.783 2.27 2.258v7.958h-2.356v-2.402c-.817 1.187-2.939 2.69-6.196 2.69-5.876 0-9.57-4.34-9.57-10.415" id="Fill-8"/><path d="M31.45 117.72c-.117-2.517-1.602-3.793-3.491-3.793h-.233c-1.629 0-3.46.927-3.956 3.793h7.68zm-10.27 1.62c0-5.034 3.258-7.494 6.661-7.494 3.723 0 6.08 2.66 6.08 6.423v1.448H23.653c.116 3.56 2.24 5.094 4.218 5.094h.231c1.6 0 2.938-.782 3.317-2.432h2.472c-.552 2.895-2.996 4.514-5.991 4.514-3.608 0-6.72-2.518-6.72-7.553z" id="Fill-10"/><path d="M38.114 123.622v-9.375h-3.256v-2.111h3.256v-4.69h2.472v4.69h3.55v2.111h-3.55v9.03c0 .867.29 1.155 1.164 1.155h2.82v2.171h-3.402c-1.977 0-3.054-1.014-3.054-2.98" id="Fill-12"/><path id="Fill-14" d="M75.17 106.346v20.257h-2.617v-18.056l-6.37 18.056h-3.402l-6.483-17.999v17.999h-2.62v-20.257h4.391l6.428 17.942 6.34-17.942z"/><path d="M85.3 124.81c2.443 0 4.275-1.998 4.275-5.442 0-3.442-1.832-5.44-4.275-5.44h-.26c-2.444 0-4.276 1.998-4.276 5.44 0 3.444 1.832 5.441 4.275 5.441h.261zm-7.008-5.442c0-4.484 2.995-7.523 6.863-7.523 3.868 0 6.892 3.039 6.892 7.523 0 4.487-3.024 7.523-6.892 7.523-3.868 0-6.863-3.036-6.863-7.523z" id="Fill-16"/><path d="M94.903 112.136h2.325v3.21c.61-2.2 2.385-3.357 4.304-3.357h1.31v2.344h-1.162c-2.678 0-4.305 1.91-4.305 5.035v7.235h-2.472v-14.467z" id="Fill-18"/><path d="M113.781 117.72c-.116-2.517-1.6-3.793-3.49-3.793h-.232c-1.63 0-3.462.927-3.957 3.793h7.68zm-10.267 1.619c0-5.034 3.256-7.494 6.66-7.494 3.723 0 6.08 2.66 6.08 6.423v1.448h-10.268c.116 3.56 2.24 5.094 4.217 5.094h.232c1.601 0 2.939-.782 3.317-2.432h2.472c-.553 2.895-2.996 4.514-5.992 4.514-3.606 0-6.718-2.518-6.718-7.553z" id="Fill-20"/></g></g></g></g></svg>